<svg width="14" height="14" viewBox="0 0 14 14" fill="none" xmlns="http://www.w3.org/2000/svg">
<path id="Icon" d="M1.75 5C1.47386 5 1.25 5.22386 1.25 5.5C1.25 5.77614 1.47386 6 1.75 6V5ZM12.25 6C12.5261 6 12.75 5.77614 12.75 5.5C12.75 5.22386 12.5261 5 12.25 5V6ZM1.81299 8.37494C1.53684 8.37494 1.31299 8.5988 1.31299 8.87494C1.31299 9.15108 1.53684 9.37494 1.81299 9.37494V8.37494ZM12.313 9.37494C12.5891 9.37494 12.813 9.15108 12.813 8.87494C12.813 8.5988 12.5891 8.37494 12.313 8.37494V9.37494ZM12.5 7C12.5 10.0376 10.0376 12.5 7 12.5V13.5C10.5899 13.5 13.5 10.5899 13.5 7H12.5ZM7 12.5C3.96243 12.5 1.5 10.0376 1.5 7H0.5C0.5 10.5899 3.41015 13.5 7 13.5V12.5ZM1.5 7C1.5 3.96243 3.96243 1.5 7 1.5V0.5C3.41015 0.5 0.5 3.41015 0.5 7H1.5ZM7 1.5C10.0376 1.5 12.5 3.96243 12.5 7H13.5C13.5 3.41015 10.5899 0.5 7 0.5V1.5ZM7 12.5C6.803 12.5 6.5759 12.4108 6.32576 12.169C6.07322 11.9249 5.82295 11.5474 5.60192 11.0422C5.16053 10.0333 4.875 8.60457 4.875 7H3.875C3.875 8.70914 4.1771 10.2804 4.68577 11.4431C4.93978 12.0236 5.25514 12.5249 5.6307 12.888C6.00866 13.2534 6.47213 13.5 7 13.5V12.5ZM4.875 7C4.875 5.39543 5.16053 3.96667 5.60192 2.95777C5.82295 2.45258 6.07322 2.07514 6.32576 1.83098C6.5759 1.58916 6.803 1.5 7 1.5V0.5C6.47213 0.5 6.00866 0.746631 5.6307 1.11204C5.25514 1.47511 4.93978 1.97636 4.68577 2.55695C4.1771 3.71962 3.875 5.29086 3.875 7H4.875ZM7 13.5C7.52787 13.5 7.99134 13.2534 8.3693 12.888C8.74486 12.5249 9.06022 12.0236 9.31423 11.4431C9.8229 10.2804 10.125 8.70914 10.125 7H9.125C9.125 8.60457 8.83947 10.0333 8.39808 11.0422C8.17705 11.5474 7.92678 11.9249 7.67424 12.169C7.4241 12.4108 7.197 12.5 7 12.5V13.5ZM10.125 7C10.125 5.29086 9.8229 3.71962 9.31423 2.55695C9.06022 1.97636 8.74486 1.47511 8.3693 1.11204C7.99134 0.746631 7.52787 0.5 7 0.5V1.5C7.197 1.5 7.4241 1.58916 7.67424 1.83098C7.92678 2.07514 8.17705 2.45258 8.39808 2.95777C8.83947 3.96667 9.125 5.39543 9.125 7H10.125ZM1.75 6H12.25V5H1.75V6ZM1.81299 9.37494H12.313V8.37494H1.81299V9.37494Z" fill="white"/>
</svg>
